<svg width="223.288" height="91.728" viewBox="0 0 223.288 91.728" xmlns="http://www.w3.org/2000/svg"><g id="svgGroup" stroke-linecap="round" fill-rule="evenodd" font-size="9pt" stroke="#003666" stroke-width="0.1" fill="#ffffff" style="stroke:#003666;stroke-width:0.1;fill:#ffffff"><path d="M 36.816 79.04 L 36.816 91.728 Q 27.921 91.728 22.764 90.321 A 22.526 22.526 0 0 1 21.892 90.064 Q 16.64 88.4 14.716 84.916 Q 13.082 81.957 12.836 77.609 A 28.057 28.057 0 0 1 12.792 76.024 L 12.792 61.568 Q 12.792 58.344 11.128 56.368 A 8.474 8.474 0 0 0 8.118 54.119 A 11.081 11.081 0 0 0 6.604 53.56 Q 3.744 52.728 0 52.728 L 0 39.104 Q 3.481 39.104 6.197 38.385 A 17.344 17.344 0 0 0 6.604 38.272 A 10.029 10.029 0 0 0 9.094 37.186 A 8.171 8.171 0 0 0 11.128 35.412 Q 12.792 33.384 12.792 30.264 L 12.792 15.6 A 24.979 24.979 0 0 1 13.04 11.968 Q 13.483 8.959 14.716 6.76 Q 16.64 3.328 21.84 1.664 Q 26.537 0.161 34.968 0.016 A 107.246 107.246 0 0 1 36.816 0 L 36.816 12.688 A 20.876 20.876 0 0 0 34.14 12.853 A 16.613 16.613 0 0 0 32.24 13.208 A 8.189 8.189 0 0 0 30.461 13.867 A 6.401 6.401 0 0 0 28.86 15.028 A 3.922 3.922 0 0 0 27.971 16.454 Q 27.74 17.074 27.639 17.845 A 9.936 9.936 0 0 0 27.56 19.136 L 27.56 33.592 A 15.819 15.819 0 0 1 27.26 36.773 Q 26.864 38.703 25.943 40.171 A 8.411 8.411 0 0 1 24.492 41.912 A 12.265 12.265 0 0 1 21.146 44.051 Q 18.785 45.097 15.6 45.552 L 15.6 46.176 A 23.933 23.933 0 0 1 19.202 46.958 Q 21.082 47.532 22.557 48.398 A 11.408 11.408 0 0 1 24.492 49.816 A 8.992 8.992 0 0 1 27.073 54.135 Q 27.484 55.605 27.548 57.369 A 18.232 18.232 0 0 1 27.56 58.032 L 27.56 72.592 A 9.595 9.595 0 0 0 27.669 74.09 Q 27.79 74.854 28.046 75.461 A 3.83 3.83 0 0 0 28.86 76.7 A 6.189 6.189 0 0 0 30.925 78.048 A 8.34 8.34 0 0 0 32.292 78.468 A 25.533 25.533 0 0 0 35.636 78.965 A 29.443 29.443 0 0 0 36.816 79.04 Z M 186.472 91.728 L 186.472 79.04 A 28.613 28.613 0 0 0 189.148 78.808 A 22.545 22.545 0 0 0 191.048 78.468 A 7.77 7.77 0 0 0 192.827 77.847 A 6.117 6.117 0 0 0 194.428 76.7 A 3.922 3.922 0 0 0 195.317 75.274 Q 195.548 74.654 195.649 73.883 A 9.936 9.936 0 0 0 195.728 72.592 L 195.728 58.032 Q 195.728 53.88 197.536 51.261 A 8.495 8.495 0 0 1 198.796 49.816 A 12.265 12.265 0 0 1 202.142 47.677 Q 204.503 46.631 207.688 46.176 L 207.688 45.552 Q 203.405 44.929 200.58 43.198 A 11.775 11.775 0 0 1 198.848 41.912 A 8.945 8.945 0 0 1 196.243 37.624 Q 195.825 36.168 195.746 34.416 A 18.418 18.418 0 0 1 195.728 33.592 L 195.728 19.136 A 9.595 9.595 0 0 0 195.619 17.639 Q 195.498 16.875 195.242 16.267 A 3.83 3.83 0 0 0 194.428 15.028 A 6.579 6.579 0 0 0 192.286 13.615 A 8.626 8.626 0 0 0 191.048 13.208 A 17.249 17.249 0 0 0 188.359 12.768 A 21.759 21.759 0 0 0 186.472 12.688 L 186.472 0 A 95.167 95.167 0 0 1 191.655 0.132 Q 196.66 0.406 200.043 1.25 A 22.286 22.286 0 0 1 201.5 1.664 Q 205.172 2.851 207.204 4.937 A 8.717 8.717 0 0 1 208.572 6.76 A 13.842 13.842 0 0 1 209.921 10.276 Q 210.496 12.643 210.496 15.6 L 210.496 30.264 Q 210.496 33.384 212.16 35.412 A 8.445 8.445 0 0 0 215.389 37.808 A 10.907 10.907 0 0 0 216.684 38.272 Q 219.365 39.052 222.823 39.101 A 32.956 32.956 0 0 0 223.288 39.104 L 223.288 52.728 Q 219.648 52.728 216.736 53.56 A 10.604 10.604 0 0 0 214.372 54.539 A 8.16 8.16 0 0 0 212.16 56.368 A 6.835 6.835 0 0 0 210.75 59.24 Q 210.512 60.242 210.497 61.411 A 12.32 12.32 0 0 0 210.496 61.568 L 210.496 76.024 A 25.016 25.016 0 0 1 210.237 79.736 Q 209.943 81.689 209.318 83.309 A 12.99 12.99 0 0 1 208.572 84.916 Q 206.939 87.873 202.947 89.519 A 19.624 19.624 0 0 1 201.448 90.064 Q 196.751 91.567 188.32 91.713 A 107.246 107.246 0 0 1 186.472 91.728 Z M 71.656 74.776 L 49.296 74.776 L 49.296 0.52 L 73.736 0.52 A 55.641 55.641 0 0 1 83.352 1.309 Q 88.907 2.284 93.513 4.463 A 34.6 34.6 0 0 1 93.964 4.68 Q 102.44 8.84 106.964 16.796 A 32.957 32.957 0 0 1 110.461 26.165 Q 111.327 30.163 111.463 34.775 A 58.899 58.899 0 0 1 111.488 36.504 A 55.74 55.74 0 0 1 110.758 45.782 Q 109.877 50.996 107.934 55.286 A 31.756 31.756 0 0 1 106.704 57.72 Q 101.92 66.248 92.976 70.512 A 42.065 42.065 0 0 1 82.504 73.839 Q 77.457 74.776 71.656 74.776 Z M 125.944 0.52 L 150.592 0.52 A 52.209 52.209 0 0 1 158.208 1.037 Q 162.105 1.613 165.231 2.832 A 20.509 20.509 0 0 1 171.652 6.708 A 20.256 20.256 0 0 1 177.925 18.102 A 29.904 29.904 0 0 1 178.464 23.92 Q 178.464 28.912 177.008 33.436 Q 175.552 37.96 172.172 41.496 Q 168.792 45.032 163.332 47.112 A 29.093 29.093 0 0 1 158.08 48.532 Q 154.376 49.192 149.864 49.192 L 143.624 49.192 L 143.624 74.776 L 125.944 74.776 L 125.944 0.52 Z M 74.256 14.976 L 66.976 14.976 L 66.976 60.216 L 72.696 60.216 Q 79.738 60.216 84.303 57.622 A 14.699 14.699 0 0 0 88.192 54.444 A 18.135 18.135 0 0 0 91.56 48.418 Q 92.474 45.771 92.873 42.53 A 44.226 44.226 0 0 0 93.184 37.128 Q 93.184 31.512 92.017 27.376 A 21.234 21.234 0 0 0 91.052 24.648 Q 88.92 19.76 84.708 17.368 Q 80.879 15.193 75.373 14.996 A 31.152 31.152 0 0 0 74.256 14.976 Z M 149.968 14.976 L 143.624 14.976 L 143.624 34.736 L 148.304 34.736 A 21.607 21.607 0 0 0 151.472 34.515 Q 153.214 34.257 154.7 33.696 A 9.251 9.251 0 0 0 157.646 31.937 A 8.626 8.626 0 0 0 159.016 30.368 Q 160.411 28.323 160.558 25.196 A 16.017 16.017 0 0 0 160.576 24.44 A 12.905 12.905 0 0 0 160.296 21.667 Q 159.893 19.835 158.91 18.48 A 7.478 7.478 0 0 0 157.976 17.42 Q 156.016 15.578 152.46 15.124 A 19.736 19.736 0 0 0 149.968 14.976 Z" vector-effect="non-scaling-stroke"/></g></svg>